<svg width="141" height="73" viewBox="0 0 141 73" fill="none" xmlns="http://www.w3.org/2000/svg">
<path d="M0.884766 72V0.90625H6.45117V72H0.884766ZM16.1191 50.2715V48.709C16.1191 42.166 17.763 36.7786 21.0508 32.5469C24.3711 28.2826 28.7982 26.1504 34.332 26.1504C37.6849 26.1504 40.5332 26.7038 42.877 27.8105C45.2207 28.9173 47.0436 30.3822 48.3457 32.2051V0.662109H53.7168V72H48.5898L48.541 65.5059H48.4922C47.1901 67.5566 45.3346 69.3145 42.9258 70.7793C40.5169 72.2441 37.6523 72.9766 34.332 72.9766C28.6354 72.9766 24.1758 70.8281 20.9531 66.5312C17.7305 62.2344 16.1191 56.8145 16.1191 50.2715ZM21.6367 50.2715C21.6367 55.4798 22.7435 59.7604 24.957 63.1133C27.2031 66.4336 30.7025 68.0938 35.4551 68.0938C38.6126 68.0938 41.2982 67.2311 43.5117 65.5059C45.7578 63.748 47.3691 61.7461 48.3457 59.5V38.9434C47.4017 36.7298 45.8066 34.8743 43.5605 33.377C41.3145 31.847 38.6126 31.082 35.4551 31.082C30.6699 31.082 27.1706 32.7259 24.957 36.0137C22.7435 39.3014 21.6367 43.5332 21.6367 48.709V50.2715ZM62.3105 50.2715V48.709C62.3105 41.9382 64.0521 36.4857 67.5352 32.3516C71.0182 28.1849 75.6243 26.1016 81.3535 26.1016C87.0827 26.1016 91.4609 28.0221 94.4883 31.8633C97.5156 35.6719 99.0293 41.0755 99.0293 48.0742V50.2227H65.2891V45.4863H93.6094V45.291C93.6094 41.5801 92.6816 38.276 90.8262 35.3789C88.9707 32.4818 85.8132 31.0332 81.3535 31.0332C76.8613 31.0332 73.4434 32.6445 71.0996 35.8672C68.7884 39.0573 67.6328 43.3379 67.6328 48.709V50.2715C67.6328 55.6426 68.8698 59.9557 71.3438 63.2109C73.8177 66.4661 77.3496 68.0938 81.9395 68.0938C85.097 68.0938 87.75 67.4753 89.8984 66.2383C92.0469 65.0013 93.7233 63.3737 94.9277 61.3555L98.6387 64.9199C97.4342 66.9382 95.4486 68.7936 92.6816 70.4863C89.9147 72.1465 86.3665 72.9766 82.0371 72.9766C75.7546 72.9766 70.888 70.9258 67.4375 66.8242C64.0195 62.6901 62.3105 57.1725 62.3105 50.2715ZM104.498 59.3047C104.498 54.9427 106.174 51.4596 109.527 48.8555C112.913 46.2513 117.421 44.9492 123.053 44.9492H133.844V40.3594C133.844 37.2669 133.03 34.9395 131.402 33.377C129.775 31.8145 127.138 31.0332 123.492 31.0332C119.879 31.0332 117.112 31.7168 115.191 33.084C113.303 34.4186 112.359 36.3717 112.359 38.9434V40.0664H106.939V38.3574C106.939 34.9395 108.404 32.0423 111.334 29.666C114.296 27.2897 118.365 26.1016 123.541 26.1016C128.456 26.1016 132.298 27.1921 135.064 29.373C137.831 31.5215 139.215 35.1836 139.215 40.3594V60.2812C139.215 62.3971 139.345 64.3991 139.605 66.2871C139.898 68.1751 140.354 69.819 140.973 71.2188V72H135.992C135.504 71.1536 135.081 70.0794 134.723 68.7773C134.397 67.4753 134.153 66.1569 133.99 64.8223C132.949 66.8405 131.158 68.6471 128.619 70.2422C126.113 71.8372 122.923 72.6348 119.049 72.6348C114.557 72.6348 111.008 71.4954 108.404 69.2168C105.8 66.9382 104.498 63.6341 104.498 59.3047ZM109.869 59.1582C109.869 62.0228 110.732 64.1712 112.457 65.6035C114.215 67.0358 116.721 67.752 119.977 67.752C123.46 67.752 126.633 66.5801 129.498 64.2363C132.395 61.8926 133.844 59.2396 133.844 56.2773V49.4902H123.98C119.163 49.4902 115.598 50.3529 113.287 52.0781C111.008 53.8034 109.869 56.1634 109.869 59.1582Z" fill="#FD9A3E"/>
</svg>
