<svg width="326" height="94" viewBox="0 0 326 94" fill="none" xmlns="http://www.w3.org/2000/svg">
<path d="M0.859375 72V0.662109H6.23047V72H0.859375ZM18.1934 72V27.127H23.5645V72H18.1934ZM17.168 10.1836C17.168 9.10938 17.4935 8.21419 18.1445 7.49805C18.7956 6.74935 19.7233 6.375 20.9277 6.375C22.1322 6.375 23.0436 6.73307 23.6621 7.44922C24.3132 8.16536 24.6387 9.06055 24.6387 10.1348C24.6387 11.2415 24.3132 12.1693 23.6621 12.918C23.0111 13.6341 22.0833 13.9922 20.8789 13.9922C19.6745 13.9922 18.7467 13.6178 18.0957 12.8691C17.4772 12.1204 17.168 11.2253 17.168 10.1836ZM29.7656 27.127H35.4785L47.5879 60.0371C48.0436 61.2741 48.4668 62.446 48.8574 63.5527C49.248 64.6595 49.5247 65.4733 49.6875 65.9941H49.9316C50.127 65.4408 50.3874 64.627 50.7129 63.5527C51.0384 62.446 51.429 61.2741 51.8848 60.0371L64.1895 27.127H69.8047L52.5684 72H47.0996L29.7656 27.127ZM75.9082 72V27.127H81.2793V72H75.9082ZM74.8828 10.1836C74.8828 9.10938 75.2083 8.21419 75.8594 7.49805C76.5104 6.74935 77.4382 6.375 78.6426 6.375C79.847 6.375 80.7585 6.73307 81.377 7.44922C82.028 8.16536 82.3535 9.06055 82.3535 10.1348C82.3535 11.2415 82.028 12.1693 81.377 12.918C80.7259 13.6341 79.7982 13.9922 78.5938 13.9922C77.3893 13.9922 76.4616 13.6178 75.8105 12.8691C75.1921 12.1204 74.8828 11.2253 74.8828 10.1836ZM93.291 72V27.127H98.418V33.6699H98.4668C99.9642 31.1634 101.966 29.2917 104.473 28.0547C106.979 26.7852 109.779 26.1504 112.871 26.1504C117.201 26.1504 120.618 27.3874 123.125 29.8613C125.664 32.3353 126.934 36.4694 126.934 42.2637V72H121.562V42.752C121.562 38.5202 120.651 35.5254 118.828 33.7676C117.038 31.9772 114.499 31.082 111.211 31.082C108.379 31.082 105.872 31.8796 103.691 33.4746C101.51 35.0697 99.834 37.153 98.6621 39.7246V72H93.291ZM137.188 87.5273L139.922 83.1816C141.354 84.3861 143.258 85.5091 145.635 86.5508C148.011 87.625 150.811 88.1621 154.033 88.1621C157.809 88.1621 160.967 86.7786 163.506 84.0117C166.045 81.2773 167.314 76.7852 167.314 70.5352V65.75C165.85 67.7682 163.913 69.4121 161.504 70.6816C159.095 71.9512 156.198 72.5859 152.812 72.5859C147.279 72.5859 142.933 70.5026 139.775 66.3359C136.65 62.1693 135.088 56.8145 135.088 50.2715V48.709C135.088 42.166 136.65 36.7786 139.775 32.5469C142.933 28.2826 147.409 26.1504 153.203 26.1504C156.296 26.1504 159.111 26.8014 161.65 28.1035C164.222 29.4056 166.159 31.0658 167.461 33.084H167.51L167.559 27.127H172.686V70.5352C172.686 77.9896 170.993 83.6048 167.607 87.3809C164.222 91.1569 159.583 93.0449 153.691 93.0449C150.273 93.0449 147.148 92.5078 144.316 91.4336C141.484 90.3919 139.108 89.0898 137.188 87.5273ZM140.557 50.2715C140.557 55.4798 141.663 59.6953 143.877 62.918C146.123 66.1081 149.639 67.7031 154.424 67.7031C157.581 67.7031 160.283 66.8568 162.529 65.1641C164.775 63.4714 166.37 61.502 167.314 59.2559V39.4316C166.338 37.2181 164.727 35.2812 162.48 33.6211C160.267 31.9284 157.581 31.082 154.424 31.082C149.639 31.082 146.123 32.7259 143.877 36.0137C141.663 39.3014 140.557 43.5332 140.557 48.709V50.2715Z" fill="black"/>
<path d="M185.381 72V0.90625H190.947V72H185.381ZM200.615 50.2715V48.709C200.615 42.166 202.259 36.7786 205.547 32.5469C208.867 28.2826 213.294 26.1504 218.828 26.1504C222.181 26.1504 225.029 26.7038 227.373 27.8105C229.717 28.9173 231.54 30.3822 232.842 32.2051V0.662109H238.213V72H233.086L233.037 65.5059H232.988C231.686 67.5566 229.831 69.3145 227.422 70.7793C225.013 72.2441 222.148 72.9766 218.828 72.9766C213.132 72.9766 208.672 70.8281 205.449 66.5312C202.227 62.2344 200.615 56.8145 200.615 50.2715ZM206.133 50.2715C206.133 55.4798 207.24 59.7604 209.453 63.1133C211.699 66.4336 215.199 68.0938 219.951 68.0938C223.109 68.0938 225.794 67.2311 228.008 65.5059C230.254 63.748 231.865 61.7461 232.842 59.5V38.9434C231.898 36.7298 230.303 34.8743 228.057 33.377C225.811 31.847 223.109 31.082 219.951 31.082C215.166 31.082 211.667 32.7259 209.453 36.0137C207.24 39.3014 206.133 43.5332 206.133 48.709V50.2715ZM246.807 50.2715V48.709C246.807 41.9382 248.548 36.4857 252.031 32.3516C255.514 28.1849 260.12 26.1016 265.85 26.1016C271.579 26.1016 275.957 28.0221 278.984 31.8633C282.012 35.6719 283.525 41.0755 283.525 48.0742V50.2227H249.785V45.4863H278.105V45.291C278.105 41.5801 277.178 38.276 275.322 35.3789C273.467 32.4818 270.309 31.0332 265.85 31.0332C261.357 31.0332 257.939 32.6445 255.596 35.8672C253.285 39.0573 252.129 43.3379 252.129 48.709V50.2715C252.129 55.6426 253.366 59.9557 255.84 63.2109C258.314 66.4661 261.846 68.0938 266.436 68.0938C269.593 68.0938 272.246 67.4753 274.395 66.2383C276.543 65.0013 278.219 63.3737 279.424 61.3555L283.135 64.9199C281.93 66.9382 279.945 68.7936 277.178 70.4863C274.411 72.1465 270.863 72.9766 266.533 72.9766C260.251 72.9766 255.384 70.9258 251.934 66.8242C248.516 62.6901 246.807 57.1725 246.807 50.2715ZM288.994 59.3047C288.994 54.9427 290.671 51.4596 294.023 48.8555C297.409 46.2513 301.917 44.9492 307.549 44.9492H318.34V40.3594C318.34 37.2669 317.526 34.9395 315.898 33.377C314.271 31.8145 311.634 31.0332 307.988 31.0332C304.375 31.0332 301.608 31.7168 299.688 33.084C297.799 34.4186 296.855 36.3717 296.855 38.9434V40.0664H291.436V38.3574C291.436 34.9395 292.9 32.0423 295.83 29.666C298.792 27.2897 302.861 26.1016 308.037 26.1016C312.952 26.1016 316.794 27.1921 319.561 29.373C322.327 31.5215 323.711 35.1836 323.711 40.3594V60.2812C323.711 62.3971 323.841 64.3991 324.102 66.2871C324.395 68.1751 324.85 69.819 325.469 71.2188V72H320.488C320 71.1536 319.577 70.0794 319.219 68.7773C318.893 67.4753 318.649 66.1569 318.486 64.8223C317.445 66.8405 315.654 68.6471 313.115 70.2422C310.609 71.8372 307.419 72.6348 303.545 72.6348C299.053 72.6348 295.505 71.4954 292.9 69.2168C290.296 66.9382 288.994 63.6341 288.994 59.3047ZM294.365 59.1582C294.365 62.0228 295.228 64.1712 296.953 65.6035C298.711 67.0358 301.217 67.752 304.473 67.752C307.956 67.752 311.13 66.5801 313.994 64.2363C316.891 61.8926 318.34 59.2396 318.34 56.2773V49.4902H308.477C303.659 49.4902 300.094 50.3529 297.783 52.0781C295.505 53.8034 294.365 56.1634 294.365 59.1582Z" fill="#FD9A3E"/>
</svg>
